PathFileType	4	(X/Y/Z)	Patient4_TMGait_0pt6_02_left_19.trc.trc
DataRate	CameraRate	NumFrames	NumMarkers	Units	OrigDataRate	OrigDataStartFrame	OrigNumFrames
80.924855491329	80.924855491329	6	33	mm	80.924855491329	124	       141
Frame#	Time	Sacral			L.Shoulder			Chest			R.Shoulder			Neck			R.ASIS			L.ASIS			R.Thigh.Superior			R.Thigh.Lateral			R.Thigh.Inferior			R.Patella			L.Thigh.Superior			L.Thigh.Lateral			L.Thigh.Inferior			L.Patella			L.Shank.Superior			L.Shank.Lateral			L.Shank.Inferior			R.Shank.Superior			R.Shank.Lateral			R.Shank.Inferior			R.Heel			R.Midfoot.Superior			R.Midfoot.Lateral			R.Toe			L.Heel			L.Midfoot.Lateral			L.Midfoot.Superior			L.Toe			L.Elbow			L.Wrist			R.Elbow			R.Wrist			
		X1	Y1	Z1	X2	Y2	Z2	X3	Y3	Z3	X4	Y4	Z4	X5	Y5	Z5	X6	Y6	Z6	X7	Y7	Z7	X8	Y8	Z8	X9	Y9	Z9	X10	Y10	Z10	X11	Y11	Z11	X12	Y12	Z12	X13	Y13	Z13	X14	Y14	Z14	X15	Y15	Z15	X16	Y16	Z16	X17	Y17	Z17	X18	Y18	Z18	X19	Y19	Z19	X20	Y20	Z20	X21	Y21	Z21	X22	Y22	Z22	X23	Y23	Z23	X24	Y24	Z24	X25	Y25	Z25	X26	Y26	Z26	X27	Y27	Z27	X28	Y28	Z28	X29	Y29	Z29	X30	Y30	Z30	X31	Y31	Z31	X32	Y32	Z32	X33	Y33	Z33	

124	24.849928571429	833.136374282431	1003.758267781145	502.814882431897	986.999780272425	1424.576087937313	299.862173319865	1110.360008681180	1353.013105264677	443.032323120717	1055.744846253622	1433.782044286597	623.454646345407	1009.750170253055	1485.499883935790	449.668290932177	1063.586114979461	937.147416503487	602.673471210261	1030.916504343647	944.546019234544	327.343812971543	1055.811415871008	723.289988218864	580.446673834217	947.309349861117	631.836458859675	640.034839824117	1006.029294976541	564.732703655966	560.425610124498	983.799274012294	480.469793180351	562.791737388314	1103.725737129309	767.761759372115	362.613549196332	1052.417958808177	634.501430887490	290.897171378224	1158.943641658867	579.090692139219	348.387446984097	1183.838911007106	511.855973437346	346.252567473492	1168.698241335847	439.067491583544	338.098865291227	1101.052381562446	306.616521792498	297.981617072704	1193.624476530902	211.166952767422	349.534434460541	945.032088375999	397.817161454107	568.104409464958	859.944622525382	303.303553949338	627.659219885436	889.003934353721	205.094066960349	561.599489616402	737.812806581436	48.075812372359	526.076386140547	911.076245207301	97.519944936824	563.919627080008	820.384593208477	38.186965641138	600.271626676885	1028.778007002125	39.163387002759	591.210062576094	1112.915535812995	39.074377498317	401.132161048332	1178.969226805702	39.747951531376	314.249021417064	1255.894406352880	111.122988919677	328.864331335090	1384.459554234220	73.050384528510	290.679225168186	820.565048526395	1110.969047853785	211.511652473601	785.165371203489	856.980344878617	276.955128909948	1239.577125123533	1158.845136546577	733.377087311769	1426.413018850024	1267.422484585794	608.906903227894	
125	24.862285714286	834.610021868475	1002.609690081537	499.802113815667	987.774069464170	1423.747975071435	297.542651751338	1110.844692632067	1352.571988725215	441.211534468507	1055.057179472607	1432.908196977651	621.515827430435	1009.643078706103	1484.730665194225	447.506063069974	1064.706885609285	936.025844830818	600.777362536488	1033.357640421573	943.509760828788	325.490544372964	1056.285344031313	721.896906786748	578.693424197269	947.241000213504	630.864403234521	638.075409976297	1005.897443890654	563.326986867078	558.691258754719	982.902365494883	478.559167142529	560.937042211532	1105.693079396093	765.862169273204	361.115490427684	1052.766765167359	632.821488567186	290.394943302690	1159.038523784410	577.158002406068	348.159630864160	1182.371777554285	509.180773674382	346.865448445927	1167.017960095287	436.266117762095	338.506611379212	1098.298626554866	304.370477817372	298.564459496124	1189.577710445630	208.304915095278	351.001932435928	942.929357911621	396.315501073066	566.601131828031	856.275037406268	303.323782790782	626.470542299404	883.651186274263	204.487063043679	560.873450724602	730.398279000218	48.731443861184	526.154828284627	903.899226608182	97.621581568335	563.883601555151	812.968734554458	38.483889718035	600.266341550111	1021.383757640500	38.984829264122	591.306520890827	1105.943036586065	38.367020018351	402.840729602322	1171.862766022584	38.267163974233	315.703792086152	1250.527419685041	107.464359841176	331.004764543352	1378.376764126919	66.478128342014	292.324296982895	821.291576271720	1110.590700844049	208.574551496009	787.434527395299	856.381629122215	274.643926248073	1238.241241610713	1157.261087708708	732.162269987366	1424.991680505332	1267.148797860394	608.541899543822	
126	24.874642857143	835.956299464853	1001.690655142093	496.804737765993	988.664219074717	1422.985403767966	295.093834033107	1111.426562794313	1352.230818763731	439.310481145008	1054.507340901129	1432.293270827210	619.455721586748	1009.669890674191	1484.134973093397	445.154169529529	1065.762376822683	934.969884372597	598.817478964913	1035.663902218666	942.739127009326	323.643975134374	1056.880126739361	720.604429872565	576.774021487703	947.458637252843	629.881620722778	635.964132168801	1006.145917939480	561.965307269137	556.787252210466	982.504210006295	476.530002593307	558.997850251223	1107.731744995218	764.454911988441	359.723502046394	1053.608926907846	631.835786693548	289.528879158705	1159.446705391088	575.810476857464	347.795444627751	1181.217479678947	507.068048046042	347.191716932647	1165.580454850134	433.985547005898	338.602896856119	1095.758105154133	302.788575834493	298.368562349412	1185.347961818293	205.927422715251	351.984536100258	941.150158070937	394.799637543928	564.990438962195	852.856465136893	303.446924321157	625.180302331873	878.474016470353	203.975682750411	560.093474995961	723.013081215320	49.676627775747	526.236207610508	896.826401348355	97.747082450502	563.806819168811	805.590297294697	38.926491909715	600.241521223454	1014.028358036387	38.786475865458	591.392905049865	1098.526643501768	37.931000225390	403.836772232631	1164.470720662396	37.177783731856	316.575979545934	1244.642263508080	104.443280421005	332.660571143386	1371.912924643168	60.900809199809	293.776909631611	822.906597766997	1109.721979751892	205.419557828122	790.832221102566	855.196131666495	271.668124093987	1235.995308621951	1155.095852969032	731.295923088118	1423.318685892992	1265.419679835054	608.600422043307	
127	24.887000000000	837.147196170916	1001.047351830934	493.842549356783	989.647852112044	1422.341654033749	292.550782656764	1112.087035414205	1352.023307103196	437.347438711623	1054.121822575991	1431.988634854503	617.291403644546	1009.841261618479	1483.757630948836	442.644979808456	1066.709558029334	934.062282680328	596.803048414194	1037.779966293417	942.281786265342	321.790312648243	1057.594086112866	719.496339765370	574.696769117190	947.994245694663	628.944796556895	633.731045024125	1006.830103864715	560.712375385912	554.753067182784	982.697920335700	474.420952915996	557.065306955899	1109.798111116805	763.615824941027	358.403323515800	1054.904834214360	631.547845575756	288.299609679226	1160.126912609074	575.046557833892	347.219703521211	1180.391137455948	505.553709534200	347.148490373990	1164.398889839069	432.256981963544	338.365845699314	1093.453112324030	301.873646570744	297.456105433668	1181.019627820229	204.077590773104	352.488105668803	939.751190845184	393.327846046011	563.333615238862	849.735252684065	303.747408313369	623.829427954681	873.527924411465	203.633236504931	559.298900068018	715.693001632257	51.031573340064	526.323641295106	889.912786509548	97.915843332441	563.710230372307	798.274933724854	39.577023816725	600.202405273886	1006.717239758878	38.567582806467	591.462702754286	1090.915267376025	37.727973002283	404.230207646555	1156.984252765217	36.451885136878	316.937537532528	1238.366269292842	102.134454447086	333.794827029796	1365.200357511913	56.523504307042	294.923256967598	825.429361181673	1108.391943794012	202.086656863500	795.339145026058	853.459989997163	268.028142544291	1232.812163426602	1152.416619963679	730.739091131746	1421.405541948077	1262.208545575500	609.047303799839	
128	24.899357142857	838.170117870766	1000.709781722721	490.919702025610	990.692203393875	1421.866453347973	289.950638130693	1112.798802716954	1351.980480102624	435.340687380704	1053.906579217085	1432.024176323928	615.044542830354	1010.150925283931	1483.630973436805	440.019535323589	1067.515490419655	933.377019652979	594.735975408787	1039.671827890207	942.167638806811	319.902872481272	1058.438546114234	718.647646172768	572.482499381052	948.887896634695	628.105079253058	631.413979348487	1008.019111716793	559.626856572417	552.642476825592	983.586920345533	472.274708854305	555.244617478931	1111.830943999122	763.357071141268	357.087615382894	1056.521166811938	631.877180880741	286.752780195768	1160.967405720863	574.788502030578	346.379200911534	1179.828519565714	504.594440401657	346.715635991160	1163.408950932150	431.041246180032	337.825242458684	1091.316599658409	301.555456292428	295.984970816910	1176.615582306120	202.731418116660	352.581615916221	938.808699384922	391.954650202008	561.701052534673	846.972480255560	304.301921905719	622.460693189666	868.881963248695	203.533837251149	558.532215307582	708.490194370700	52.928485917291	526.413597779181	883.220171185301	98.151520308954	563.617498059149	791.054277500349	40.510545082075	600.151875832126	999.449574981505	38.330814340608	591.509553947220	1083.275159094794	37.702048542658	404.167010763384	1149.517279205316	36.033145221426	316.899433790858	1231.794829108725	100.523361760197	334.443702013636	1358.325034279321	53.384582686439	295.715457548938	828.861997224986	1106.650631477031	198.617532236863	800.947120977297	851.232891845520	263.734591696351	1228.657401364899	1149.311837380993	730.437939974408	1419.237067907984	1257.483604723333	609.844830331025	
129	24.911714285714	839.025798908804	1000.686980292380	488.024440389675	991.759015509780	1421.599338023591	287.327558890543	1113.528496196476	1352.126462013984	433.306961176383	1053.841773582289	1432.402606069862	612.739491234487	1010.575670253571	1483.770173191116	437.322151370534	1068.159334723727	932.969302360455	592.613798094442	1041.330266500698	942.403728986011	317.951274182461	1059.442012982270	718.116443325747	570.166718678363	950.188561317024	627.400914577960	629.054967652309	1009.795277822441	558.755271880749	550.518712036304	985.279722691416	470.135418455713	553.640424165382	1113.757241246225	763.614387682368	355.683221365308	1058.232638263692	632.666228722648	284.971626153242	1161.794237835993	574.893429066517	345.252133393435	1179.391044141834	504.082477658745	345.939967858180	1162.477567893315	430.245200566255	337.051859130777	1089.213058483226	301.707101676622	294.176517508186	1172.112939297205	201.813472665020	352.376501573925	938.417898012362	390.725709168787	560.162624751292	844.647301361469	305.184134555775	621.112492249611	864.619049711577	203.748462626924	557.832484149162	701.476205856001	55.508854286487	526.493212896226	876.814804828621	98.482507957118	563.550763921487	783.966543545739	41.816409992591	600.087485845365	992.217551679898	38.081433063178	591.528159614600	1075.698377914899	37.791450425821	403.803722682663	1142.120824281826	35.850020855282	316.589754978709	1224.999604255604	99.524573997088	334.697676533866	1351.338504964903	51.379509554933	296.166512470785	833.189649003749	1104.565524433104	195.050040853569	807.662296033013	848.595854841555	258.809327330296	1223.492487154693	1145.884006537860	730.325577070694	1416.763798540105	1251.207061349335	610.955883267147	
